<svg xmlns="http://www.w3.org/2000/svg" viewBox="0 0 24 24" id="linkedin"><g data-name="Layer 2"><g data-name="Layer 3"><path fill="none" d="M0 0h24v24H0z"></path><path fill="#0079bd" d="M1 12C1 4 4 1 12 1s11 3 11 11-3 11-11 11S1 20 1 12"></path><path fill="#fff" d="M4.96 9.22h3.12v9.92H4.96V9.22zM6.52 4.38a1.8 1.8 0 1 1-1.8 1.8 1.8 1.8 0 0 1 1.8-1.8zm9.13 4.84a3.94 3.94 0 0 0-2.85 1.43V9.22H9.68v9.92h3.12v-5.65a1.68 1.68 0 1 1 3.36 0v5.65h3.12v-5.32c0-2.5-.28-4.6-3.63-4.6z"></path></g></g></svg>